<?xml version="1.0" encoding="UTF-8" standalone="no"?>
<!-- Created with Inkscape (http://www.inkscape.org/) -->

<svg
   xmlns:dc="http://purl.org/dc/elements/1.1/"
   xmlns:cc="http://creativecommons.org/ns#"
   xmlns:rdf="http://www.w3.org/1999/02/22-rdf-syntax-ns#"
   xmlns:svg="http://www.w3.org/2000/svg"
   xmlns="http://www.w3.org/2000/svg"
   xmlns:sodipodi="http://sodipodi.sourceforge.net/DTD/sodipodi-0.dtd"
   xmlns:inkscape="http://www.inkscape.org/namespaces/inkscape"
   width="1920px"
   height="1080px"
   viewBox="0 0 1920 1080"
   version="1.1"
   id="SVGRoot"
   inkscape:version="0.92.4 (5da689c313, 2019-01-14)"
   sodipodi:docname="help_line.svg">
  <defs
     id="defs1165" />
  <sodipodi:namedview
     id="base"
     pagecolor="#ffffff"
     bordercolor="#666666"
     borderopacity="1.0"
     inkscape:pageopacity="0.0"
     inkscape:pageshadow="2"
     inkscape:zoom="0.98994949"
     inkscape:cx="974.77808"
     inkscape:cy="840.52918"
     inkscape:document-units="px"
     inkscape:current-layer="layer4"
     showgrid="false"
     inkscape:window-width="1366"
     inkscape:window-height="705"
     inkscape:window-x="0"
     inkscape:window-y="26"
     inkscape:window-maximized="1" />
  <metadata
     id="metadata1168">
    <rdf:RDF>
      <cc:Work
         rdf:about="">
        <dc:format>image/svg+xml</dc:format>
        <dc:type
           rdf:resource="http://purl.org/dc/dcmitype/StillImage" />
        <dc:title></dc:title>
      </cc:Work>
    </rdf:RDF>
  </metadata>
  <g
     inkscape:label="Layer 1"
     inkscape:groupmode="layer"
     id="layer1">
    <path
       style="fill:#5555ff;stroke:#000000;stroke-width:0;stroke-linecap:butt;stroke-linejoin:miter;stroke-opacity:1;stroke-miterlimit:4;stroke-dasharray:none;opacity:0.56"
       d="M 294.28571,362.85714 C 331.42857,325.71429 980,-268.57143 1600,208.57143 c 620,477.14286 62.8572,848.57137 -11.4286,854.28567 -74.2857,5.7143 -905.71426,71.4286 -982.85711,-254.28567 -77.14286,-325.71429 -400,-77.14286 -400,-77.14286 0,0 -200.0297567,102.94641 -131.428576,-102.85714 C 120,491.42857 294.28571,362.85714 294.28571,362.85714 Z"
       id="path1178"
       inkscape:connector-curvature="0"
       sodipodi:nodetypes="cssscsc" />
  </g>
  <g
     inkscape:groupmode="layer"
     id="layer4"
     inkscape:label="helper">
    <path
       style="fill:#803300;stroke:#000000;stroke-width:1px;stroke-linecap:butt;stroke-linejoin:miter;stroke-opacity:1"
       d="m 980,70.714285 c 0,0 135.7143,-55 183.5714,72.142855 47.8572,127.14286 18.6135,230 7.8992,255 -10.7143,25 18.631,148.85501 12.9166,178.1407 -5.7144,29.28569 -425.46043,5.68454 -425.46043,5.68454 0,0 -68.21248,-139.53952 -53.21248,-193.82524 15,-54.28571 12.18758,-173.36946 21.82596,-205.58302 C 738.58014,145.37637 780.04716,82.058749 798.61858,79.915892 817.19001,77.773035 939.53953,4.1718709 964.53953,53.457585 989.53953,102.7433 980,70.714285 980,70.714285 Z"
       id="path1775"
       inkscape:connector-curvature="0"
       sodipodi:nodetypes="cssscssssc" />
    <path
       style="opacity:1;fill:#ff9955;fill-opacity:1;stroke:#fffffe;stroke-width:0;stroke-miterlimit:4;stroke-dasharray:none;stroke-opacity:1"
       id="path1731"
       sodipodi:type="arc"
       sodipodi:cx="952.37964"
       sodipodi:cy="296.01389"
       sodipodi:rx="194.28572"
       sodipodi:ry="209.9993"
       sodipodi:start="1.1274897"
       sodipodi:end="0.89622255"
       sodipodi:open="true"
       d="m 1035.7144,485.71429 a 194.28572,209.9993 0 0 1 -253.73177,-88.81441 194.28572,209.9993 0 0 1 67.36963,-278.92709 194.28572,209.9993 0 0 1 261.51764,56.57904 194.28572,209.9993 0 0 1 -37.1463,285.46588" />
    <rect
       style="opacity:1;fill:#ffffff;fill-opacity:1;stroke:#fffffe;stroke-width:0;stroke-miterlimit:4;stroke-dasharray:none;stroke-opacity:1"
       id="rect1735"
       width="431.4285"
       height="462.85712"
       x="737.14282"
       y="562.85712"
       ry="64.747948" />
    <rect
       style="opacity:1;fill:#ff9955;fill-opacity:1;stroke:#fffffe;stroke-width:0;stroke-miterlimit:4;stroke-dasharray:none;stroke-opacity:1"
       id="rect1733"
       width="91.428566"
       height="190"
       x="910.00006"
       y="437.14285"
       ry="7.21349" />
    <rect
       style="opacity:1;fill:#ececec;fill-opacity:1;stroke:#fffffe;stroke-width:0;stroke-miterlimit:4;stroke-dasharray:none;stroke-opacity:1"
       id="rect1739"
       width="48.487324"
       height="104.04572"
       x="451.48886"
       y="924.00787"
       ry="7.16924"
       inkscape:transform-center-x="-27.034004"
       inkscape:transform-center-y="42.682168"
       transform="rotate(-30.920932)" />
    <rect
       style="opacity:1;fill:#ececec;fill-opacity:1;stroke:#fffffe;stroke-width:0;stroke-miterlimit:4;stroke-dasharray:none;stroke-opacity:1"
       id="rect1739-6"
       width="42.755512"
       height="99.807381"
       x="-1192.8054"
       y="-150.29778"
       ry="6.8771982"
       inkscape:transform-center-x="22.581689"
       inkscape:transform-center-y="42.682134"
       transform="matrix(-0.81265711,-0.58274216,-0.44745357,0.89430716,0,0)" />
  </g>
</svg>
